/* XPM */
static char * nixos_logo_xpm[] = {
"20 20 57 1",
" 	c None",
".	c #5276C2",
"+	c #7EBAE4",
"@	c #5074BF",
"#	c #7EB9E3",
"$	c #5074BE",
"%	c #7EB8E3",
"&	c #7EB8E2",
"*	c #5176C1",
"=	c #4F72BB",
"-	c #7EB7E2",
";	c #5277C3",
">	c #4D70B7",
",	c #4C6EB3",
"'	c #4A6BAF",
")	c #7AB2DE",
"!	c #7EB7E1",
"~	c #7EB6E1",
"{	c #4F72BA",
"]	c #5C85BB",
"^	c #7EB5E0",
"/	c #7BAEDC",
"(	c #76A8DB",
"_	c #7EB4E0",
":	c #7EB3DF",
"<	c #7EB3DE",
"[	c #7EB2DE",
"}	c #7EB1DD",
"|	c #7EB4DF",
"1	c #7CAFDD",
"2	c #6F9ED3",
"3	c #5175C0",
"4	c #5378BE",
"5	c #5073BD",
"6	c #5277C2",
"7	c #7AB1DD",
"8	c #4E71B8",
"9	c #4E72BA",
"0	c #4F73BC",
"a	c #5D88BF",
"b	c #496AAE",
"c	c #4C6EB4",
"d	c #4D6FB5",
"e	c #4B6DB1",
"f	c #4B6DB2",
"g	c #4B6CB1",
"h	c #4B6DB3",
"i	c #4C6FB4",
"j	c #4C6EB5",
"k	c #4D6FB6",
"l	c #4766A7",
"m	c #496AAD",
"n	c #4E71B9",
"o	c #6B9AD1",
"p	c #7DB0DD",
"q	c #7EB9E4",
"r	c #557AC1",
"     .   +++  +     ",
"     .@   ++ +#     ",
"     .$   ++#%&     ",
"     *$=   #&-      ",
"   ;;.$=>,')!~      ",
"  ;;;.${>,']~^  ;;  ",
"      /(    _:< ;;  ",
"     <[      [}.;;  ",
"    ^|:      123*   ",
"#%&!~^        45@36;",
"++#&-7        890$3*",
"   #%ab      cd>    ",
"  +++ef      gh     ",
"  ++ ijk    lm      ",
"  ++  >nop<_~&q+++  ",
"      {0rp<_~&q++   ",
"      5@3   ~&#     ",
"     $36;;   &q     ",
"     *6 ;;   &q     ",
"     ;  ;;;   q     "};
